<?xml version="1.0" encoding="utf-8"?>
<!-- Generator: Adobe Illustrator 26.0.1, SVG Export Plug-In . SVG Version: 6.00 Build 0)  -->
<svg version="1.1" id="Layer_1" xmlns="http://www.w3.org/2000/svg" xmlns:xlink="http://www.w3.org/1999/xlink" x="0px" y="0px"
	 viewBox="0 0 293.94 99.03" style="enable-background:new 0 0 293.94 99.03;" xml:space="preserve">
<style type="text/css">
	.st0{fill:#0D9FC4;}
</style>
<g>
	<g>
		<path class="st0" d="M19.81,9.9v79.23c0,5.47-4.43,9.9-9.9,9.9h0c-5.47,0-9.9-4.43-9.9-9.9V9.9C0,4.43,4.43,0,9.9,0h0
			C15.37,0,19.81,4.43,19.81,9.9z"/>
		<path class="st0" d="M84.41,0l64.04,0c5.47,0,9.9,4.43,9.9,9.9v0c0,5.47-4.43,9.9-9.9,9.9H89.04c-5.47,0-9.9,4.43-9.9,9.9v39.61
			c0,5.47,4.43,9.9,9.9,9.9h59.42c5.47,0,9.9,4.43,9.9,9.9v0c0,5.47-4.43,9.9-9.9,9.9H84.37c-13.83,0-25.04-11.21-25.04-25.04v-48.9
			C59.33,11.23,70.56,0,84.41,0z"/>
		<path class="st0" d="M194.9,9.9L194.9,9.9c0-5.47,4.43-9.9,9.9-9.9h79.23c5.47,0,9.9,4.43,9.9,9.9v0c0,5.47-4.43,9.9-9.9,9.9
			h-79.23C199.34,19.81,194.9,15.37,194.9,9.9z M194.9,49.52L194.9,49.52c0-5.47,4.43-9.9,9.9-9.9h79.23c5.47,0,9.9,4.43,9.9,9.9v0
			c0,5.47-4.43,9.9-9.9,9.9h-79.23C199.34,59.42,194.9,54.99,194.9,49.52z M194.9,89.13L194.9,89.13c0-5.47,4.43-9.9,9.9-9.9h79.23
			c5.47,0,9.9,4.43,9.9,9.9v0c0,5.47-4.43,9.9-9.9,9.9h-79.23C199.34,99.03,194.9,94.6,194.9,89.13z"/>
	</g>
</g>
</svg>
