<?xml version="1.0" encoding="utf-8"?>
<!-- Generator: Adobe Illustrator 26.0.1, SVG Export Plug-In . SVG Version: 6.00 Build 0)  -->
<svg version="1.1" id="Layer_1" xmlns="http://www.w3.org/2000/svg" xmlns:xlink="http://www.w3.org/1999/xlink" x="0px" y="0px"
	 viewBox="0 0 511.02 99.42" style="enable-background:new 0 0 511.02 99.42;" xml:space="preserve">
<style type="text/css">
	.st0{fill:#0008A8;}
</style>
<g>
	<path class="st0" d="M89.47,19.88H29.82c-5.49,0-9.94,4.45-9.94,9.94v0c0,5.49,4.45,9.94,9.94,9.94H74.5
		c13.76,0,24.91,11.15,24.91,24.91v10.26c0,13.52-10.96,24.47-24.47,24.47h-65C4.45,99.42,0,94.97,0,89.47v0
		c0-5.49,4.45-9.94,9.94-9.94h59.65c5.49,0,9.94-4.45,9.94-9.94v0c0-5.49-4.45-9.94-9.94-9.94H24.83C11.12,59.65,0,48.53,0,34.82V25
		C0,11.19,11.19,0,25,0l64.47,0c5.49,0,9.94,4.45,9.94,9.94v0C99.42,15.43,94.97,19.88,89.47,19.88z"/>
	<path class="st0" d="M236.32,24.88v64.59c0,5.49-4.45,9.94-9.94,9.94h0c-5.49,0-9.94-4.45-9.94-9.94V29.82
		c0-5.49-4.45-9.94-9.94-9.94h-39.77c-5.49,0-9.94,4.45-9.94,9.94v59.65c0,5.49-4.45,9.94-9.94,9.94h0c-5.49,0-9.94-4.45-9.94-9.94
		V25.12C136.9,11.25,148.15,0,162.02,0h49.42C225.18,0,236.32,11.14,236.32,24.88z"/>
	<path class="st0" d="M373.23,25.24V74.3c0,13.87-11.25,25.12-25.12,25.12h-48.97c-13.99,0-25.33-11.34-25.33-25.33v-48.8
		C273.81,11.32,285.13,0,299.1,0h48.89C361.93,0,373.23,11.3,373.23,25.24z M293.69,29.82v39.77c0,5.49,4.45,9.94,9.94,9.94h39.77
		c5.49,0,9.94-4.45,9.94-9.94V29.82c0-5.49-4.45-9.94-9.94-9.94h-39.77C298.14,19.88,293.69,24.33,293.69,29.82z"/>
	<path class="st0" d="M431.48,9.94v59.65c0,5.49,4.45,9.94,9.94,9.94l0,0c5.49,0,9.94-4.45,9.94-9.94V9.94
		c0-5.49,4.45-9.94,9.94-9.94h0c5.49,0,9.94,4.45,9.94,9.94v59.65c0,5.49,4.45,9.94,9.94,9.94h0c5.49,0,9.94-4.45,9.94-9.94V9.94
		c0-5.49,4.45-9.94,9.94-9.94h0c5.49,0,9.94,4.45,9.94,9.94v64.37c0,13.86-11.24,25.1-25.1,25.1h-49.27
		c-13.83,0-25.04-11.21-25.04-25.04V9.94c0-5.49,4.45-9.94,9.94-9.94h0C427.03,0,431.48,4.45,431.48,9.94z"/>
</g>
<g id="lR2xnj.tif">
	<g>
		<path class="st0" d="M333.28,79.86c0.06-0.44,0.38-0.65,0.71-0.86c0.06-0.04,0.12-0.07,0.18-0.09c0.12-0.04,0.11-0.1,0.07-0.19
			c-0.12-0.26-0.29-0.49-0.49-0.7c-0.48-0.51-1.04-0.93-1.63-1.3c-1.2-0.76-1.87-1.86-2.12-3.23c-0.02-0.1-0.05-0.15-0.17-0.15
			c-0.76-0.04-1.53-0.09-2.29-0.13c-0.3-0.02-0.61-0.04-0.91-0.05c-0.02-0.01-0.04-0.02-0.02-0.04c0.61-0.18,1.23-0.35,1.84-0.53
			c0.03-0.01,0.07-0.02,0.11-0.03c-0.32-0.16-0.65-0.22-0.99-0.25c-0.83-0.08-1.65,0-2.47,0.11c-1.56,0.21-3.09,0.58-4.61,0.98
			c-2.72,0.72-5.39,1.59-8.04,2.52c-1.66,0.58-3.31,1.19-4.95,1.82c-0.02,0.01-0.04,0.03-0.08,0.01c0-0.15,0-0.3,0-0.48
			c-0.76,0.41-1.55,0.64-2.41,0.64c-0.37,0-0.73-0.05-1.12-0.14c0.7-0.53,1.38-1.05,2.09-1.6c-0.51,0-0.98,0-1.46,0
			c0.01-0.05,0.06-0.05,0.09-0.07c0.4-0.2,0.79-0.41,1.19-0.61c0.45-0.22,0.88-0.47,1.33-0.7c0.26-0.14,0.53-0.26,0.79-0.4
			c0.44-0.24,0.88-0.46,1.33-0.69c0.51-0.26,1.01-0.52,1.52-0.78c0.47-0.25,0.94-0.5,1.42-0.75c0.46-0.24,0.92-0.47,1.38-0.7
			c0.5-0.26,1-0.53,1.5-0.79c0.45-0.23,0.89-0.45,1.34-0.68c0.72-0.37,1.45-0.75,2.17-1.12c0.27-0.14,0.54-0.28,0.8-0.44
			c-1.08,0-2.15,0-3.23,0c0-0.01-0.01-0.01-0.01-0.02c0.17-0.11,0.34-0.21,0.5-0.32c0.46-0.3,0.92-0.6,1.39-0.89
			c0.65-0.4,1.29-0.83,1.95-1.23c0.46-0.28,0.91-0.59,1.37-0.88c0.47-0.3,0.94-0.59,1.4-0.89c0.42-0.26,0.83-0.53,1.24-0.8
			c0.56-0.35,1.13-0.7,1.68-1.06c0.42-0.28,0.85-0.55,1.27-0.81c0.56-0.34,1.1-0.71,1.66-1.04c0.47-0.28,0.92-0.59,1.38-0.87
			c0.46-0.29,0.91-0.58,1.38-0.86c0.33-0.2,0.65-0.41,0.98-0.62c0.03-0.02,0.06-0.03,0.09-0.05c0.02-0.05,0.07-0.07,0.12-0.1
			c0.63-0.37,1.27-0.73,1.92-1.05c0.78-0.38,1.57-0.73,2.37-1.07c0.39-0.16,0.78-0.33,1.14-0.54c0.17-0.1,0.32-0.21,0.46-0.34
			c0.58-0.52,1.16-1.02,1.75-1.53c0.58-0.51,1.17-1.01,1.8-1.47c0.6-0.44,1.22-0.85,1.89-1.17c0.45-0.21,0.92-0.39,1.41-0.45
			c0.65-0.08,1.27,0.01,1.89,0.24c0.75,0.29,1.4,0.72,2.01,1.23c0.37,0.31,0.77,0.59,1.15,0.89c0.52,0.42,1.05,0.85,1.56,1.28
			c0.05,0.04,0.1,0.09,0.13,0.16c0,0.01,0,0.02,0,0.02c-0.16,0.11-0.35,0.15-0.52,0.21c-0.87,0.33-1.72,0.71-2.55,1.13
			c-0.23,0.11-0.43,0.26-0.61,0.44c-0.47,0.46-0.89,0.95-1.23,1.51c-0.2,0.33-0.37,0.68-0.5,1.05c-0.46,1.33-1.01,2.63-1.53,3.93
			c-0.18,0.45-0.33,0.9-0.53,1.34c-0.21,0.47-0.49,0.9-0.82,1.3c-0.59,0.73-1.32,1.3-2.08,1.83c-0.79,0.55-1.63,1.02-2.49,1.46
			c-0.83,0.43-1.67,0.84-2.5,1.27c-0.69,0.36-1.38,0.71-2.01,1.15c-0.32,0.22-0.63,0.47-0.89,0.77c-0.29,0.34-0.45,0.75-0.54,1.18
			c-0.23,1.16,0.04,2.22,0.71,3.18c0.28,0.41,0.59,0.79,0.95,1.13c0.51,0.5,1.07,0.92,1.68,1.27c0.48,0.28,1,0.46,1.52,0.67
			c0.34,0.13,0.65,0.32,0.84,0.65c0.03,0.05,0.08,0.1,0.04,0.16c-0.02,0-0.03,0-0.05,0c-0.54-0.13-1.08-0.28-1.64-0.34
			c-0.28-0.03-0.56-0.05-0.85-0.06c-0.68-0.03-1.34,0.04-2,0.15c-0.28,0.05-0.56,0.12-0.84,0.19c-0.09,0.02-0.18,0.03-0.27,0.06
			C333.33,79.86,333.31,79.86,333.28,79.86z"/>
		<path class="st0" d="M326.62,73.11c0.01,0.01,0.02,0.03,0.02,0.04c-0.04,0-0.08,0-0.14,0.01
			C326.55,73.12,326.58,73.1,326.62,73.11z"/>
	</g>
</g>
</svg>
